<?xml version="1.0" encoding="utf-8"?>
<!-- Svg Vector Icons : http://www.onlinewebfonts.com/icon -->
<!DOCTYPE svg PUBLIC "-//W3C//DTD SVG 1.1//EN" "http://www.w3.org/Graphics/SVG/1.1/DTD/svg11.dtd">
<svg version="1.1" xmlns="http://www.w3.org/2000/svg" xmlns:xlink="http://www.w3.org/1999/xlink" x="0px" y="0px" viewBox="0 0 1000 1000" enable-background="new 0 0 1000 1000" xml:space="preserve">
<metadata> Svg Vector Icons : http://www.onlinewebfonts.com/icon </metadata>
<g><g transform="translate(0.000000,268.000000) scale(0.100000,-0.100000)"><path d="M4766.7,189c-205.1-65.1-371.8-205.1-465.7-391c-61.3-122.7-97.7-297.1-80.5-383.3c28.8-132.2,161-199.3,276-138c67.1,34.5,93.9,86.2,118.8,228.1c59.4,346.9,507.9,442.7,709.1,149.5c32.6-47.9,46-99.7,51.7-189.7c13.4-195.5-23-260.6-258.7-479.1c-276-256.8-300.9-302.8-310.5-575l-5.8-214.7l-2035.3-923.8C1648.5-3235.8,640.5-3697.7,527.4-3755.2C195.8-3923.8,100-4044.6,100-4297.6c0-118.8,9.6-161,53.7-243.4c63.3-122.7,162.9-220.4,279.8-277.9l88.2-44.1h4475.1h4475.1l88.1,44.1c245.3,120.7,387.1,402.5,325.8,645.9c-32.6,128.4-109.2,233.8-230,314.3c-120.7,82.4-136.1,88.2-2641,1228.5l-1826.4,827.9v153.3v153.3l228.1,224.2c180.1,172.5,241.5,247.2,279.8,333.5c178.2,387.1,57.5,826-283.7,1042.6C5228.6,221.6,4971.8,256.1,4766.7,189z M7195-3143.8c1182.5-538.6,2184.8-1002.3,2228.9-1031.1c67.1-44.1,76.7-59.4,76.7-122.7c0-86.2-65.2-161-155.2-180.2c-78.6-15.3-8618.6-15.3-8697.2,0c-138,28.8-205.1,189.7-111.2,276c53.7,53.7,38.3,46,2418.7,1130.8c1107.7,504,2029.6,914.2,2050.7,912.3C5027.4-2162.6,6012.5-2605.3,7195-3143.8z"/></g></g>
</svg>