<svg width="31" height="35" viewBox="0 0 31 35" fill="none" xmlns="http://www.w3.org/2000/svg">
<path d="M30.776 11.312C30.776 13.072 30.472 14.784 29.864 16.448C29.288 18.08 28.488 19.536 27.464 20.816C26.44 22.096 25.24 23.136 23.864 23.936C22.52 24.704 21.08 25.088 19.544 25.088C19.16 25.088 18.776 24.992 18.392 24.8C18.008 24.576 17.608 24.336 17.192 24.08L16.952 23.936C16.888 24.704 16.808 25.648 16.712 26.768C16.648 27.856 16.616 29.072 16.616 30.416C16.616 30.64 16.616 30.832 16.616 30.992C16.616 31.152 16.616 31.296 16.616 31.424C16.648 31.552 16.664 31.68 16.664 31.808C16.664 31.936 16.664 32.112 16.664 32.336C16.664 32.688 16.744 33.04 16.904 33.392C17.096 33.744 17.192 33.952 17.192 34.016C17.192 34.304 17 34.464 16.616 34.496C16.232 34.56 15.992 34.592 15.896 34.592C15.064 34.592 14.408 34.464 13.928 34.208C13.48 33.952 13.144 33.408 12.92 32.576C12.696 31.744 12.552 30.544 12.488 28.976C12.456 27.376 12.44 25.264 12.44 22.64C12.44 20.432 12.488 18.304 12.584 16.256C12.68 14.208 12.792 12.352 12.92 10.688C13.08 8.992 13.224 7.536 13.352 6.32C13.512 5.072 13.64 4.144 13.736 3.536C13.352 3.6 12.84 3.744 12.2 3.968C11.592 4.16 10.936 4.4 10.232 4.688C9.52801 4.976 8.80801 5.312 8.07201 5.696C7.33601 6.08 6.66401 6.48 6.05601 6.896C5.48001 7.312 5.01601 7.744 4.66401 8.192C4.28001 8.608 4.08801 9.024 4.08801 9.44L4.90401 12.128C4.90401 12.384 4.85601 12.72 4.76001 13.136C4.66401 13.52 4.39201 13.712 3.94401 13.712C3.30401 13.712 2.76001 13.6 2.31201 13.376C1.83201 13.12 1.44801 12.816 1.16001 12.464C0.840012 12.08 0.600012 11.68 0.440012 11.264C0.280012 10.848 0.200012 10.464 0.200012 10.112C0.200012 9.12 0.552012 8.192 1.25601 7.328C1.92801 6.464 2.82401 5.68 3.94401 4.976C5.03201 4.272 6.28001 3.632 7.68801 3.056C9.09601 2.48 10.52 2 11.96 1.616C13.4 1.232 14.776 0.944001 16.088 0.752002C17.432 0.528001 18.584 0.416 19.544 0.416C20.664 0.416 21.768 0.496 22.856 0.656C23.976 0.784 25.08 1.12 26.168 1.664C27.32 2.24 28.2 3.04 28.808 4.064C29.448 5.088 29.912 6.112 30.2 7.136C30.488 8.16 30.648 9.072 30.68 9.872C30.744 10.672 30.776 11.152 30.776 11.312ZM27.416 9.248C27.416 7.744 27.064 6.576 26.36 5.744C25.688 4.88 24.84 4.24 23.816 3.824C22.824 3.408 21.768 3.168 20.648 3.104C19.528 3.008 18.52 2.96 17.624 2.96C17.432 2.96 17.096 2.992 16.616 3.056C16.168 3.088 15.576 3.168 14.84 3.296C15.896 3.552 16.648 3.904 17.096 4.352C17.544 4.8 17.752 5.2 17.72 5.552L17.192 19.136C17.192 20.256 17.288 21.088 17.48 21.632C17.672 22.176 18.216 22.448 19.112 22.448C19.976 22.448 20.888 21.984 21.848 21.056C22.84 20.096 23.736 18.944 24.536 17.6C25.368 16.224 26.056 14.784 26.6 13.28C27.144 11.744 27.416 10.4 27.416 9.248Z" fill="#1D7A8C"/>
</svg>
